<svg class="main-svg" xmlns="http://www.w3.org/2000/svg" xmlns:xlink="http://www.w3.org/1999/xlink" width="700" height="500" style="" viewBox="0 0 700 500"><rect x="0" y="0" width="700" height="500" style="fill: rgb(255, 255, 255); fill-opacity: 1;"/><defs id="defs-d53341"><g class="clips"><clipPath id="clipd53341xyplot" class="plotclip"><rect width="620" height="315"/></clipPath><clipPath class="axesclip" id="clipd53341x"><rect x="40" y="0" width="620" height="500"/></clipPath><clipPath class="axesclip" id="clipd53341y"><rect x="0" y="100" width="700" height="315"/></clipPath><clipPath class="axesclip" id="clipd53341xy"><rect x="40" y="100" width="620" height="315"/></clipPath></g><g class="gradients"/></defs><g class="bglayer"><rect class="bg" x="40" y="100" width="620" height="315" style="fill: rgb(248, 248, 248); fill-opacity: 1; stroke-width: 0;"/></g><g class="layer-below"><g class="imagelayer"/><g class="shapelayer"/></g><g class="cartesianlayer"><g class="subplot xy"><g class="layer-subplot"><g class="shapelayer"/><g class="imagelayer"/></g><g class="gridlayer"><g class="x"/><g class="y"/></g><g class="zerolinelayer"/><path class="xlines-below"/><path class="ylines-below"/><g class="overlines-below"/><g class="xaxislayer-below"/><g class="yaxislayer-below"/><g class="overaxes-below"/><g class="plot" transform="translate(40, 100)" clip-path="url('#clipd53341xyplot')"><g class="scatterlayer mlayer"><g class="trace scatter tracef8004e" style="stroke-miterlimit: 2; opacity: 1;"><g class="fills"/><g class="errorbars"/><g class="lines"><path class="js-line" d="M420,111.25L254,18.75" style="vector-effect: non-scaling-stroke; fill: none; stroke: rgb(210, 210, 210); stroke-opacity: 1; stroke-width: 1px; opacity: 1;"/><path class="js-line" d="M420,111.25L254,203.75" style="vector-effect: non-scaling-stroke; fill: none; stroke: rgb(210, 210, 210); stroke-opacity: 1; stroke-width: 1px; opacity: 1;"/><path class="js-line" d="M254,203.75L254,296.25" style="vector-effect: non-scaling-stroke; fill: none; stroke: rgb(210, 210, 210); stroke-opacity: 1; stroke-width: 1px; opacity: 1;"/><path class="js-line" d="M420,111.25L420,18.75" style="vector-effect: non-scaling-stroke; fill: none; stroke: rgb(210, 210, 210); stroke-opacity: 1; stroke-width: 1px; opacity: 1;"/><path class="js-line" d="M420,111.25L420,203.75" style="vector-effect: non-scaling-stroke; fill: none; stroke: rgb(210, 210, 210); stroke-opacity: 1; stroke-width: 1px; opacity: 1;"/><path class="js-line" d="M420,111.25L586,18.75" style="vector-effect: non-scaling-stroke; fill: none; stroke: rgb(210, 210, 210); stroke-opacity: 1; stroke-width: 1px; opacity: 1;"/><path class="js-line" d="M420,111.25L586,203.75" style="vector-effect: non-scaling-stroke; fill: none; stroke: rgb(210, 210, 210); stroke-opacity: 1; stroke-width: 1px; opacity: 1;"/></g><g class="points"/><g class="text"/></g><g class="trace scatter tracee9ff08" style="stroke-miterlimit: 2; opacity: 0.8;"><g class="fills"/><g class="errorbars"/><g class="lines"/><g class="points"><path class="point" transform="translate(88,18.75)" d="M0,0A0,0 0 1,1 0,-0A0,0 0 0,1 0,0ZM0,0.5L0.5,0L0,-0.5L-0.5,0Z" style="opacity: 1; stroke-width: 1px; fill: rgb(97, 117, 193); fill-opacity: 1; stroke: rgb(50, 50, 50); stroke-opacity: 1;"/><path class="point" transform="translate(88,111.25)" d="M0,0A0,0 0 1,1 0,-0A0,0 0 0,1 0,0ZM0,0.5L0.5,0L0,-0.5L-0.5,0Z" style="opacity: 1; stroke-width: 1px; fill: rgb(97, 117, 193); fill-opacity: 1; stroke: rgb(50, 50, 50); stroke-opacity: 1;"/><path class="point" transform="translate(88,203.75)" d="M0,0A0,0 0 1,1 0,-0A0,0 0 0,1 0,0ZM0,0.5L0.5,0L0,-0.5L-0.5,0Z" style="opacity: 1; stroke-width: 1px; fill: rgb(97, 117, 193); fill-opacity: 1; stroke: rgb(50, 50, 50); stroke-opacity: 1;"/><path class="point" transform="translate(88,296.25)" d="M0,0A0,0 0 1,1 0,-0A0,0 0 0,1 0,0ZM0,0.5L0.5,0L0,-0.5L-0.5,0Z" style="opacity: 1; stroke-width: 1px; fill: rgb(97, 117, 193); fill-opacity: 1; stroke: rgb(50, 50, 50); stroke-opacity: 1;"/><path class="point" transform="translate(420,111.25)" d="M0,0A0,0 0 1,1 0,-0A0,0 0 0,1 0,0ZM0,0.5L0.5,0L0,-0.5L-0.5,0Z" style="opacity: 1; stroke-width: 1px; fill: rgb(97, 117, 193); fill-opacity: 1; stroke: rgb(50, 50, 50); stroke-opacity: 1;"/><path class="point" transform="translate(254,18.75)" d="M0,0A0,0 0 1,1 0,-0A0,0 0 0,1 0,0ZM0,0.5L0.5,0L0,-0.5L-0.5,0Z" style="opacity: 1; stroke-width: 1px; fill: rgb(97, 117, 193); fill-opacity: 1; stroke: rgb(50, 50, 50); stroke-opacity: 1;"/><path class="point" transform="translate(254,203.75)" d="M0,0A0,0 0 1,1 0,-0A0,0 0 0,1 0,0ZM0,0.5L0.5,0L0,-0.5L-0.5,0Z" style="opacity: 1; stroke-width: 1px; fill: rgb(97, 117, 193); fill-opacity: 1; stroke: rgb(50, 50, 50); stroke-opacity: 1;"/><path class="point" transform="translate(254,296.25)" d="M0,0A0,0 0 1,1 0,-0A0,0 0 0,1 0,0ZM0,0.5L0.5,0L0,-0.5L-0.5,0Z" style="opacity: 1; stroke-width: 1px; fill: rgb(97, 117, 193); fill-opacity: 1; stroke: rgb(50, 50, 50); stroke-opacity: 1;"/><path class="point" transform="translate(420,18.75)" d="M0,0A0,0 0 1,1 0,-0A0,0 0 0,1 0,0ZM0,0.5L0.5,0L0,-0.5L-0.5,0Z" style="opacity: 1; stroke-width: 1px; fill: rgb(97, 117, 193); fill-opacity: 1; stroke: rgb(50, 50, 50); stroke-opacity: 1;"/><path class="point" transform="translate(420,203.75)" d="M0,0A0,0 0 1,1 0,-0A0,0 0 0,1 0,0ZM0,0.5L0.5,0L0,-0.5L-0.5,0Z" style="opacity: 1; stroke-width: 1px; fill: rgb(97, 117, 193); fill-opacity: 1; stroke: rgb(50, 50, 50); stroke-opacity: 1;"/><path class="point" transform="translate(586,18.75)" d="M0,0A0,0 0 1,1 0,-0A0,0 0 0,1 0,0ZM0,0.5L0.5,0L0,-0.5L-0.5,0Z" style="opacity: 1; stroke-width: 1px; fill: rgb(97, 117, 193); fill-opacity: 1; stroke: rgb(50, 50, 50); stroke-opacity: 1;"/><path class="point" transform="translate(586,203.75)" d="M0,0A0,0 0 1,1 0,-0A0,0 0 0,1 0,0ZM0,0.5L0.5,0L0,-0.5L-0.5,0Z" style="opacity: 1; stroke-width: 1px; fill: rgb(97, 117, 193); fill-opacity: 1; stroke: rgb(50, 50, 50); stroke-opacity: 1;"/></g><g class="text"/></g></g></g><g class="overplot"/><path class="xlines-above crisp" style="fill: none;" d="M0,0"/><path class="ylines-above crisp" style="fill: none;" d="M0,0"/><g class="overlines-above"/><g class="xaxislayer-above"/><g class="yaxislayer-above"/><g class="overaxes-above"/></g></g><g class="polarlayer"/><g class="ternarylayer"/><g class="geolayer"/><g class="funnelarealayer"/><g class="pielayer"/><g class="treemaplayer"/><g class="sunburstlayer"/><g class="glimages"/><defs id="topdefs-d53341"><g class="clips"/></defs><g class="layer-above"><g class="imagelayer"/><g class="shapelayer"/></g><g class="infolayer"><g class="g-gtitle"><text class="gtitle" x="35" y="50" text-anchor="start" dy="0em" style="font-family: 'Open Sans', verdana, arial, sans-serif; font-size: 17px; fill: rgb(42, 63, 95); opacity: 1; font-weight: normal; white-space: pre;">Hypernym-Hyponym-Meronym Tree - table</text></g><g class="g-xtitle"/><g class="g-ytitle"/><g class="annotation" data-index="0" style="opacity: 1;"><g class="annotation-text-g" transform="rotate(0,128,118.75)"><g class="cursor-pointer" transform="translate(94, 111)"><rect class="bg" x="0.5" y="0.5" width="68" height="14" style="stroke-width: 1px; stroke: rgb(0, 0, 0); stroke-opacity: 0; fill: rgb(0, 0, 0); fill-opacity: 0;"/><text class="annotation-text" text-anchor="middle" x="34.265625" y="11" style="font-family: 'Open Sans', verdana, arial, sans-serif; font-size: 10px; fill: rgb(0, 0, 0); fill-opacity: 1; white-space: pre;">Hypernyms -></text></g></g></g><g class="annotation" data-index="1" style="opacity: 1;"><g class="annotation-text-g" transform="rotate(0,128,211.25)"><g class="cursor-pointer" transform="translate(107, 204)"><rect class="bg" x="0.5" y="0.5" width="41" height="14" style="stroke-width: 1px; stroke: rgb(0, 0, 0); stroke-opacity: 0; fill: rgb(0, 0, 0); fill-opacity: 0;"/><text class="annotation-text" text-anchor="middle" x="20.84375" y="11" style="font-family: 'Open Sans', verdana, arial, sans-serif; font-size: 10px; fill: rgb(0, 0, 0); fill-opacity: 1; white-space: pre;">Word -></text></g></g></g><g class="annotation" data-index="2" style="opacity: 1;"><g class="annotation-text-g" transform="rotate(0,128,303.75)"><g class="cursor-pointer" transform="translate(96, 296)"><rect class="bg" x="0.5" y="0.5" width="64" height="14" style="stroke-width: 1px; stroke: rgb(0, 0, 0); stroke-opacity: 0; fill: rgb(0, 0, 0); fill-opacity: 0;"/><text class="annotation-text" text-anchor="middle" x="32.59375" y="11" style="font-family: 'Open Sans', verdana, arial, sans-serif; font-size: 10px; fill: rgb(0, 0, 0); fill-opacity: 1; white-space: pre;">Hyponyms -></text></g></g></g><g class="annotation" data-index="3" style="opacity: 1;"><g class="annotation-text-g" transform="rotate(0,128,396.25)"><g class="cursor-pointer" transform="translate(96, 389)"><rect class="bg" x="0.5" y="0.5" width="64" height="14" style="stroke-width: 1px; stroke: rgb(0, 0, 0); stroke-opacity: 0; fill: rgb(0, 0, 0); fill-opacity: 0;"/><text class="annotation-text" text-anchor="middle" x="32.3125" y="11" style="font-family: 'Open Sans', verdana, arial, sans-serif; font-size: 10px; fill: rgb(0, 0, 0); fill-opacity: 1; white-space: pre;">Meronyms -></text></g></g></g><g class="annotation" data-index="4" style="opacity: 1;"><g class="annotation-text-g" transform="rotate(0,460,211.25)"><g class="cursor-pointer" transform="translate(446, 204)"><rect class="bg" x="0.5" y="0.5" width="27" height="14" style="stroke-width: 1px; stroke: rgb(0, 0, 0); stroke-opacity: 0; fill: rgb(0, 0, 0); fill-opacity: 0;"/><text class="annotation-text" text-anchor="middle" x="13.84375" y="11" style="font-family: 'Open Sans', verdana, arial, sans-serif; font-size: 10px; fill: rgb(0, 0, 0); fill-opacity: 1; white-space: pre;">table</text></g></g></g><g class="annotation" data-index="5" style="opacity: 1;"><g class="annotation-text-g" transform="rotate(0,294,118.75)"><g class="cursor-pointer" transform="translate(273, 111)"><rect class="bg" x="0.5" y="0.5" width="42" height="14" style="stroke-width: 1px; stroke: rgb(0, 0, 0); stroke-opacity: 0; fill: rgb(0, 0, 0); fill-opacity: 0;"/><text class="annotation-text" text-anchor="middle" x="21.34375" y="11" style="font-family: 'Open Sans', verdana, arial, sans-serif; font-size: 10px; fill: rgb(0, 0, 0); fill-opacity: 1; white-space: pre;">furniture</text></g></g></g><g class="annotation" data-index="6" style="opacity: 1;"><g class="annotation-text-g" transform="rotate(0,294,303.75)"><g class="cursor-pointer" transform="translate(40, 244)"><rect class="bg" x="0.5" y="0.5" width="507" height="118" style="stroke-width: 1px; stroke: rgb(0, 0, 0); stroke-opacity: 0; fill: rgb(0, 0, 0); fill-opacity: 0;"/><text class="annotation-text" text-anchor="middle" x="253.296875" y="11" style="font-family: 'Open Sans', verdana, arial, sans-serif; font-size: 10px; fill: rgb(0, 0, 0); fill-opacity: 1; white-space: pre;"><tspan class="line" dy="0em" x="253.296875" y="11">desk, breakfast_table, booth</tspan><tspan class="line" dy="1.3em" x="253.296875" y="11"> operating_table, dressing_table</tspan><tspan class="line" dy="2.6em" x="253.296875" y="11"> platen, gueridon</tspan><tspan class="line" dy="3.9000000000000004em" x="253.296875" y="11"> pier_table, conference_table</tspan><tspan class="line" dy="5.2em" x="253.296875" y="11"> card_table, trestle_table</tspan><tspan class="line" dy="6.5em" x="253.296875" y="11"> gaming_table, coffee_table</tspan><tspan class="line" dy="7.800000000000001em" x="253.296875" y="11"> drop-leaf_table, console_table</tspan><tspan class="line" dy="9.1em" x="253.296875" y="11"> pool_table, stand</tspan><tspan class="line" dy="10.4em" x="253.296875" y="11"> worktable, dining_table, altar, parsons_table, counter, tea_table, table-tennis_table, kitchen_table, pedestal_table</tspan></text></g></g></g><g class="annotation" data-index="7" style="opacity: 1;"><g class="annotation-text-g" transform="rotate(0,294,396.25)"><g class="cursor-pointer" transform="translate(239, 389)"><rect class="bg" x="0.5" y="0.5" width="109" height="14" style="stroke-width: 1px; stroke: rgb(0, 0, 0); stroke-opacity: 0; fill: rgb(0, 0, 0); fill-opacity: 0;"/><text class="annotation-text" text-anchor="middle" x="54.703125" y="11" style="font-family: 'Open Sans', verdana, arial, sans-serif; font-size: 10px; fill: rgb(0, 0, 0); fill-opacity: 1; white-space: pre;">tabletop, leg, tableware</text></g></g></g><g class="annotation" data-index="8" style="opacity: 1;"><g class="annotation-text-g" transform="rotate(0,460,118.75)"><g class="cursor-pointer" transform="translate(446, 111)"><rect class="bg" x="0.5" y="0.5" width="28" height="14" style="stroke-width: 1px; stroke: rgb(0, 0, 0); stroke-opacity: 0; fill: rgb(0, 0, 0); fill-opacity: 0;"/><text class="annotation-text" text-anchor="middle" x="14.40625" y="11" style="font-family: 'Open Sans', verdana, arial, sans-serif; font-size: 10px; fill: rgb(0, 0, 0); fill-opacity: 1; white-space: pre;">array</text></g></g></g><g class="annotation" data-index="9" style="opacity: 1;"><g class="annotation-text-g" transform="rotate(0,460,303.75)"><g class="cursor-pointer" transform="translate(355, 290)"><rect class="bg" x="0.5" y="0.5" width="210" height="27" style="stroke-width: 1px; stroke: rgb(0, 0, 0); stroke-opacity: 0; fill: rgb(0, 0, 0); fill-opacity: 0;"/><text class="annotation-text" text-anchor="middle" x="104.578125" y="11" style="font-family: 'Open Sans', verdana, arial, sans-serif; font-size: 10px; fill: rgb(0, 0, 0); fill-opacity: 1; white-space: pre;"><tspan class="line" dy="0em" x="104.578125" y="11">periodic_table, contents, correlation_table</tspan><tspan class="line" dy="1.3em" x="104.578125" y="11"> file_allocation_table, actuarial_table, calendar</tspan></text></g></g></g><g class="annotation" data-index="10" style="opacity: 1;"><g class="annotation-text-g" transform="rotate(0,626,118.75)"><g class="cursor-pointer" transform="translate(603, 111)"><rect class="bg" x="0.5" y="0.5" width="45" height="14" style="stroke-width: 1px; stroke: rgb(0, 0, 0); stroke-opacity: 0; fill: rgb(0, 0, 0); fill-opacity: 0;"/><text class="annotation-text" text-anchor="middle" x="23.296875" y="11" style="font-family: 'Open Sans', verdana, arial, sans-serif; font-size: 10px; fill: rgb(0, 0, 0); fill-opacity: 1; white-space: pre;">tableland</text></g></g></g><g class="annotation" data-index="11" style="opacity: 1;"><g class="annotation-text-g" transform="rotate(0,626,303.75)"><g class="cursor-pointer" transform="translate(624, 302)"><rect class="bg" x="0.5" y="0.5" width="3" height="3" style="stroke-width: 1px; stroke: rgb(0, 0, 0); stroke-opacity: 0; fill: rgb(0, 0, 0); fill-opacity: 0;"/><text class="annotation-text" text-anchor="middle" x="2" y="2" style="font-family: 'Open Sans', verdana, arial, sans-serif; font-size: 10px; fill: rgb(0, 0, 0); fill-opacity: 1; white-space: pre;"></text></g></g></g></g></svg>